<?xml version="1.0" encoding="UTF-8"?><svg id="Layer_2" xmlns="http://www.w3.org/2000/svg" viewBox="0 0 161.99752 60"><defs><style>.cls-1{fill:#fff;}.cls-2{fill:#1f2937;}.cls-3{isolation:isolate;}.cls-4{fill:#2563eb;}</style></defs><g id="Layer_1-2"><rect class="cls-4" width="60" height="60" rx="12" ry="12"/><path class="cls-1" d="M15,30c0-8.284,6.716-15,15-15h15c8.284,0,15,6.716,15,15s-6.716,15-15,15h-15c-8.284,0-15-6.716-15-15Z"/><path class="cls-4" d="M30,22.5c0-4.142,3.358-7.5,7.5-7.5s7.5,3.358,7.5,7.5-3.358,7.5-7.5,7.5-7.5-3.358-7.5-7.5Z"/><g class="cls-3"><path class="cls-2" d="M76.57055,40.60304v-23.20641h7.49374c3.69651,0,5.54476,1.98423,5.54476,5.95269,0,2.49791-.94679,4.11451-2.84037,4.84978,2.29647.41296,3.4447,2.22093,3.4447,5.42389,0,4.65337-1.97416,6.98005-5.92247,6.98005h-7.72036ZM80.90664,26.80913h1.4504c1.16838,0,1.94394-.22159,2.32668-.66477.39282-.44318.58923-1.3245.58923-2.64396,0-.9065-.14605-1.58134-.43814-2.02452-.29209-.45325-.88132-.67988-1.76768-.67988h-2.16049v6.01312ZM80.90664,37.20367h2.19071c.95686,0,1.63674-.27699,2.03963-.83096s.60433-1.49069.60433-2.81015c0-1.30939-.24173-2.19575-.7252-2.65907-.47339-.46332-1.2691-.69498-2.38712-.69498h-1.72235v6.99516Z"/><path class="cls-2" d="M108.81679,40.60304h-4.74402c-.31224-.80578-.46836-2.69936-.46836-5.68074,0-1.86336-.24173-3.05189-.7252-3.56557-.48347-.52376-1.69213-.78563-3.626-.78563h-1.57127v10.03194h-4.33609v-23.20641h8.27937c2.31661,0,3.96846.49858,4.95554,1.49573.99715.99715,1.49573,2.36194,1.49573,4.09436,0,3.38427-1.21874,5.24259-3.65622,5.57498,1.14823.17123,2.00941.61441,2.58353,1.32953s.86118,1.70724.86118,2.97634v1.813c0,3.10225.31728,4.93539.95183,5.49944v.42303ZM103.54398,23.83278c0-1.13816-.20648-1.92883-.61944-2.37201-.40289-.44318-1.10291-.66477-2.10006-.66477h-3.14254v6.37572h3.14254c1.813,0,2.7195-1.11298,2.7195-3.33894Z"/><path class="cls-2" d="M110.06071,40.60304l5.55987-23.20641h5.81671l5.31814,23.20641h-4.66848l-1.14823-5.92247h-5.04619l-1.16334,5.92247h-4.66848ZM116.5724,31.2812h3.70154l-1.75257-9.53336-1.94898,9.53336Z"/><path class="cls-2" d="M128.66411,17.39663h4.5325l5.86204,14.68531v-14.68531h4.33609v23.20641h-4.5325l-5.86204-14.32271v14.32271h-4.33609v-23.20641Z"/><path class="cls-2" d="M147.26689,40.60304v-23.20641h8.91392c1.36982,0,2.60367.53383,3.70154,1.60148.78563.73527,1.33457,1.79286,1.64681,3.17275.31224,1.36982.46836,3.5555.46836,6.55702,0,2.97131-.19137,5.23756-.57412,6.79875s-1.04751,2.80512-1.9943,3.73176c-.93672.89643-2.30654,1.34464-4.10947,1.34464h-8.05275ZM151.60298,37.20367h2.00941c1.62163,0,2.67921-.5439,3.17275-1.6317.49354-1.09787.74031-3.32887.74031-6.693,0-3.1929-.22159-5.33828-.66477-6.43615s-1.29428-1.64681-2.55331-1.64681h-2.70439v16.40766Z"/></g></g></svg>