<?xml version="1.0" encoding="UTF-8" standalone="no"?>
<svg width="800" height="400" viewBox="0 0 800 400" fill="none" xmlns="http://www.w3.org/2000/svg">
  <rect width="800" height="400" fill="#F3F4F6"/>
  <rect x="50" y="50" width="700" height="300" rx="8" fill="white" stroke="#E5E7EB" stroke-width="2"/>
  
  <!-- Header -->
  <rect x="100" y="80" width="300" height="40" rx="4" fill="#4F46E5" opacity="0.1"/>
  <rect x="100" y="80" width="250" height="8" rx="4" fill="#4F46E5"/>
  <rect x="100" y="100" width="180" height="6" rx="3" fill="#6B7280"/>
  
  <!-- Color Palette -->
  <rect x="100" y="150" width="150" height="8" rx="4" fill="#1F2937"/>
  
  <rect x="100" y="170" width="120" height="100" rx="6" fill="white" stroke="#E5E7EB" stroke-width="2"/>
  <rect x="100" y="170" width="120" height="60" rx="6" fill="#4F46E5"/>
  <rect x="110" y="240" width="80" height="6" rx="3" fill="#1F2937"/>
  <rect x="110" y="255" width="60" height="5" rx="2.5" fill="#6B7280"/>
  
  <rect x="240" y="170" width="120" height="100" rx="6" fill="white" stroke="#E5E7EB" stroke-width="2"/>
  <rect x="240" y="170" width="120" height="60" rx="6" fill="#10B981"/>
  <rect x="250" y="240" width="80" height="6" rx="3" fill="#1F2937"/>
  <rect x="250" y="255" width="60" height="5" rx="2.5" fill="#6B7280"/>
  
  <rect x="380" y="170" width="120" height="100" rx="6" fill="white" stroke="#E5E7EB" stroke-width="2"/>
  <rect x="380" y="170" width="120" height="60" rx="6" fill="#8B5CF6"/>
  <rect x="390" y="240" width="80" height="6" rx="3" fill="#1F2937"/>
  <rect x="390" y="255" width="60" height="5" rx="2.5" fill="#6B7280"/>
  
  <!-- Typography -->
  <rect x="520" y="150" width="150" height="8" rx="4" fill="#1F2937"/>
  
  <rect x="520" y="170" width="230" height="100" rx="6" fill="white" stroke="#E5E7EB" stroke-width="2"/>
  <rect x="540" y="190" width="190" height="12" rx="6" fill="#1F2937"/>
  <rect x="540" y="215" width="170" height="8" rx="4" fill="#6B7280"/>
  <rect x="540" y="235" width="150" height="8" rx="4" fill="#6B7280"/>
  <rect x="540" y="255" width="130" height="8" rx="4" fill="#6B7280"/>
  
  <!-- Text "Brand Guide Template" -->
  <text x="400" y="350" font-family="Arial" font-size="24" font-weight="bold" text-anchor="middle" fill="#1F2937">Brand Guide Template</text>
</svg>
